<svg width="34" height="26" viewBox="0 0 34 26" fill="none" xmlns="http://www.w3.org/2000/svg">
<path fill-rule="evenodd" clip-rule="evenodd" d="M3.92307 0H23.5385C23.5385 0.430977 23.7107 0.844302 24.0172 1.14905C24.3238 1.45379 24.7395 1.625 25.1731 1.625C25.6066 1.625 26.0224 1.45379 26.3289 1.14905C26.6355 0.844302 26.8077 0.430977 26.8077 0H30.0769C30.944 0 31.7755 0.34241 32.3886 0.951903C33.0017 1.5614 33.3461 2.38805 33.3461 3.25V22.75C33.3461 23.612 33.0017 24.4386 32.3886 25.0481C31.7755 25.6576 30.944 26 30.0769 26H26.8077C26.8077 25.569 26.6355 25.1557 26.3289 24.851C26.0224 24.5462 25.6066 24.375 25.1731 24.375C24.7395 24.375 24.3238 24.5462 24.0172 24.851C23.7107 25.1557 23.5385 25.569 23.5385 26H3.92307C3.05602 26 2.22447 25.6576 1.61137 25.0481C0.998275 24.4386 0.653839 23.612 0.653839 22.75V3.25C0.653839 2.38805 0.998275 1.5614 1.61137 0.951903C2.22447 0.34241 3.05602 0 3.92307 0ZM26.8077 6.50163C26.8077 6.9326 26.6355 7.34593 26.3289 7.65067C26.0224 7.95542 25.6066 8.12663 25.1731 8.12663C24.7395 8.12663 24.3238 7.95542 24.0172 7.65067C23.7107 7.34593 23.5385 6.9326 23.5385 6.50163V6.5C23.5385 6.06902 23.7107 5.6557 24.0172 5.35095C24.3238 5.04621 24.7395 4.875 25.1731 4.875C25.6066 4.875 26.0224 5.04621 26.3289 5.35095C26.6355 5.6557 26.8077 6.06902 26.8077 6.5V6.50163ZM25.1731 14.6266C25.6066 14.6266 26.0224 14.4554 26.3289 14.1507C26.6355 13.8459 26.8077 13.4326 26.8077 13.0016V13C26.8077 12.569 26.6355 12.1557 26.3289 11.851C26.0224 11.5462 25.6066 11.375 25.1731 11.375C24.7395 11.375 24.3238 11.5462 24.0172 11.851C23.7107 12.1557 23.5385 12.569 23.5385 13V13.0016C23.5385 13.4326 23.7107 13.8459 24.0172 14.1507C24.3238 14.4554 24.7395 14.6266 25.1731 14.6266ZM26.8077 19.5016C26.8077 19.9326 26.6355 20.3459 26.3289 20.6507C26.0224 20.9554 25.6066 21.1266 25.1731 21.1266C24.7395 21.1266 24.3238 20.9554 24.0172 20.6507C23.7107 20.3459 23.5385 19.9326 23.5385 19.5016V19.5C23.5385 19.069 23.7107 18.6557 24.0172 18.351C24.3238 18.0462 24.7395 17.875 25.1731 17.875C25.6066 17.875 26.0224 18.0462 26.3289 18.351C26.6355 18.6557 26.8077 19.069 26.8077 19.5V19.5016Z" fill="black"/>
</svg>
