<svg width="28" height="31" viewBox="0 0 28 31" fill="none" xmlns="http://www.w3.org/2000/svg">
<path d="M0 19.7778C0 16.4641 2.68629 13.7778 6 13.7778H13.8333C17.147 13.7778 19.8333 16.4641 19.8333 19.7778V24.5555C19.8333 26.2124 18.4902 27.5555 16.8333 27.5555H3C1.34315 27.5555 0 26.2124 0 24.5555V19.7778Z" fill="#0A4AC2"/>
<ellipse cx="9.91667" cy="6.31481" rx="6.41667" ry="6.31481" fill="#0A4AC2"/>
<path d="M8.16666 23.2222C8.16666 19.9085 10.8529 17.2222 14.1667 17.2222H22C25.3137 17.2222 28 19.9085 28 23.2222V28C28 29.6569 26.6568 31 25 31H11.1667C9.50981 31 8.16666 29.6569 8.16666 28V23.2222Z" fill="black"/>
<ellipse cx="18.0833" cy="9.75926" rx="6.41667" ry="6.31481" fill="black"/>
</svg>
