<svg width="40" height="27" viewBox="0 0 40 27" fill="none" xmlns="http://www.w3.org/2000/svg">
<mask id="path-1-inside-1_173_942" fill="white">
<path fill-rule="evenodd" clip-rule="evenodd" d="M18.1607 9C16.8274 9 15.7466 10.0808 15.7466 11.4141V23.4843C15.7466 24.8176 16.8274 25.8984 18.1607 25.8984H36.0144L38.3293 26.8961C39.2149 27.2777 40.1588 26.5141 39.9775 25.5626L39.5651 23.3975V11.4141C39.5651 10.0808 38.4843 9 37.1511 9H18.1607Z"/>
</mask>
<path fill-rule="evenodd" clip-rule="evenodd" d="M18.1607 9C16.8274 9 15.7466 10.0808 15.7466 11.4141V23.4843C15.7466 24.8176 16.8274 25.8984 18.1607 25.8984H36.0144L38.3293 26.8961C39.2149 27.2777 40.1588 26.5141 39.9775 25.5626L39.5651 23.3975V11.4141C39.5651 10.0808 38.4843 9 37.1511 9H18.1607Z" fill="white"/>
<path d="M36.0144 25.8984L36.4921 24.7899L36.2635 24.6914H36.0144V25.8984ZM38.3293 26.8961L38.8071 25.7876L38.8071 25.7876L38.3293 26.8961ZM39.9775 25.5626L38.7918 25.7884L39.9775 25.5626ZM39.5651 23.3975H38.3581V23.5114L38.3794 23.6233L39.5651 23.3975ZM16.9536 11.4141C16.9536 10.7474 17.494 10.207 18.1607 10.207V7.79297C16.1608 7.79297 14.5396 9.41419 14.5396 11.4141H16.9536ZM16.9536 23.4843V11.4141H14.5396V23.4843H16.9536ZM18.1607 24.6914C17.494 24.6914 16.9536 24.151 16.9536 23.4843H14.5396C14.5396 25.4842 16.1608 27.1054 18.1607 27.1054V24.6914ZM36.0144 24.6914H18.1607V27.1054H36.0144V24.6914ZM38.8071 25.7876L36.4921 24.7899L35.5367 27.0069L37.8516 28.0045L38.8071 25.7876ZM38.7918 25.7884C38.7936 25.7974 38.7929 25.8003 38.7931 25.7985C38.7932 25.797 38.7937 25.7945 38.7947 25.7921C38.7963 25.7879 38.7971 25.7886 38.7943 25.7909C38.7915 25.7932 38.7923 25.7911 38.7999 25.7899C38.804 25.7893 38.8083 25.7893 38.8117 25.7897C38.8132 25.7899 38.8138 25.7901 38.8134 25.7899C38.8129 25.7898 38.8108 25.7892 38.8071 25.7876L37.8516 28.0045C39.6393 28.775 41.5229 27.2249 41.1633 25.3367L38.7918 25.7884ZM38.3794 23.6233L38.7918 25.7884L41.1633 25.3367L40.7509 23.1716L38.3794 23.6233ZM38.3581 11.4141V23.3975H40.7722V11.4141H38.3581ZM37.1511 10.207C37.8177 10.207 38.3581 10.7474 38.3581 11.4141H40.7722C40.7722 9.41419 39.151 7.79297 37.1511 7.79297V10.207ZM18.1607 10.207H37.1511V7.79297H18.1607V10.207Z" fill="black" mask="url(#path-1-inside-1_173_942)"/>
<mask id="path-3-inside-2_173_942" fill="white">
<path fill-rule="evenodd" clip-rule="evenodd" d="M24.1599 0C25.6348 0 26.8305 1.19566 26.8305 2.67057V16.0234C26.8305 17.4983 25.6349 18.694 24.1599 18.694H4.40911L1.84819 19.7977C0.868536 20.2199 -0.17565 19.3751 0.0248432 18.3225L0.481045 15.9275V2.67057C0.481045 1.19566 1.6767 0 3.15162 0H24.1599Z"/>
</mask>
<path fill-rule="evenodd" clip-rule="evenodd" d="M24.1599 0C25.6348 0 26.8305 1.19566 26.8305 2.67057V16.0234C26.8305 17.4983 25.6349 18.694 24.1599 18.694H4.40911L1.84819 19.7977C0.868536 20.2199 -0.17565 19.3751 0.0248432 18.3225L0.481045 15.9275V2.67057C0.481045 1.19566 1.6767 0 3.15162 0H24.1599Z" fill="#0A4AC2"/>
<path d="M4.40911 18.694L3.88062 17.4678L4.13362 17.3587H4.40911V18.694ZM1.84819 19.7977L1.3197 18.5715H1.3197L1.84819 19.7977ZM0.0248432 18.3225L-1.28686 18.0727V18.0727L0.0248432 18.3225ZM0.481045 15.9275H1.81633V16.0535L1.79275 16.1773L0.481045 15.9275ZM25.4952 2.67057C25.4952 1.93311 24.8974 1.33529 24.1599 1.33529V-1.33529C26.3723 -1.33529 28.1658 0.458203 28.1658 2.67057H25.4952ZM25.4952 16.0234V2.67057H28.1658V16.0234H25.4952ZM24.1599 17.3587C24.8974 17.3587 25.4952 16.7609 25.4952 16.0234H28.1658C28.1658 18.2358 26.3723 20.0293 24.1599 20.0293V17.3587ZM4.40911 17.3587H24.1599V20.0293H4.40911V17.3587ZM1.3197 18.5715L3.88062 17.4678L4.9376 19.9202L2.37668 21.024L1.3197 18.5715ZM1.33655 18.5724C1.33554 18.5777 1.33528 18.581 1.33521 18.5824C1.33513 18.5839 1.33522 18.5842 1.33516 18.5835C1.335 18.5818 1.33443 18.5791 1.33339 18.5764C1.33246 18.574 1.33168 18.5729 1.33177 18.573C1.33194 18.5733 1.33265 18.5741 1.33383 18.5751C1.335 18.576 1.33561 18.5762 1.33503 18.576C1.33432 18.5757 1.33186 18.5747 1.32762 18.574C1.32307 18.5733 1.31837 18.5733 1.31461 18.5737C1.31292 18.574 1.31225 18.5742 1.31275 18.574C1.31323 18.5739 1.31553 18.5732 1.3197 18.5715L2.37668 21.024C0.39905 21.8763 -1.68473 20.1615 -1.28686 18.0727L1.33655 18.5724ZM1.79275 16.1773L1.33655 18.5724L-1.28686 18.0727L-0.830658 15.6776L1.79275 16.1773ZM1.81633 2.67057V15.9275H-0.85424V2.67057H1.81633ZM3.15162 1.33529C2.41416 1.33529 1.81633 1.93311 1.81633 2.67057H-0.85424C-0.85424 0.458199 0.93924 -1.33529 3.15162 -1.33529V1.33529ZM24.1599 1.33529H3.15162V-1.33529H24.1599V1.33529Z" fill="black" mask="url(#path-3-inside-2_173_942)"/>
</svg>
